# xmcd
#
# Track frame offsets: 
#        150
#        20666
#        35821
#        49298
#        65455
#        78862
#        92579
#        107487
#        123275
#        138387
#        150665
#        162353
#
# Disc length: 2364 seconds
#
# Revision: 5
# Processed by: cddbd v1.5.2PL0 Copyright (c) Steve Scherf et al.
# Submitted via: ExactAudioCopyFreeDBPlugin 1.0
#
DISCID=98093a0c
DTITLE=KORT - Invariable Heartache
DYEAR=2010
DGENRE=Country
TTITLE0=Incredibly Lonely
TTITLE1=Eyes Look Away
TTITLE2=A Special Day
TTITLE3=Picking Wild Mountain Berries
TTITLE4=Yours Forever
TTITLE5=He's Only A Memory Away
TTITLE6=She Came Around Last Night
TTITLE7=Penetration
TTITLE8=April's Fool
TTITLE9=I Can't Sleep Without You
TTITLE10=Let's Think About Where We're Going
TTITLE11=Who's Gonna Love Me Now?
EXTD=YEAR: 2010
EXTT0=
EXTT1=
EXTT2=
EXTT3=
EXTT4=
EXTT5=
EXTT6=
EXTT7=
EXTT8=
EXTT9=
EXTT10=
EXTT11=
PLAYORDER=
